<?xml version="1.0" encoding="UTF-8"?>
<svg width="28.434mm" height="30.261mm" version="1.1" viewBox="0 0 28.434 30.261" xmlns="http://www.w3.org/2000/svg">
 <path d="m15.83 16.41c0.26113-3.0013 2.3492-5.1862 2.3302-7.6716-0.0109-1.3418-0.70892-2.8797-2.197-3.9997-0.19891-0.14962-1.1648-0.8858-1.7464-1.5159-0.58123 0.63009-1.5422 1.3663-1.7412 1.5159-1.4883 1.12-2.1865 2.6579-2.197 3.9997-0.019 2.4855 2.0637 4.6704 2.325 7.6716 1.0662-0.0946 2.1796-0.11973 3.2264 0zm-8.7266-6.5194c-2.2989-4e-3 -3.8851 2.1989-3.4108 4.3838 0.31732 1.4621 1.6479 2.7445 3.2264 2.5248-0.26742-1.014 0.19357-2.1538 1.3008-2.3148 1.2924-0.18777 2.0435 1.1473 2.3097 2.1868 0.55242-0.12187 1.1552-0.17438 1.6234-0.22022h0.0256c-0.10714-2.2861-1.8474-6.5558-5.0752-6.5603zm14.237 5e-3c-3.2274 4e-3 -4.968 4.2691-5.0752 6.5552l0.0257 5e-3c0.46794 0.0456 1.067 0.099 1.6234 0.20998 0.26251-1.028 1.0172-2.3643 2.3097-2.1766 1.1073 0.16117 1.5732 1.3008 1.3059 2.3148 1.5785 0.22001 2.9038-1.0627 3.2213-2.5248 0.47437-2.185-1.1122-4.3869-3.4107-4.3838zm-7.1237 6.8984c-2.4107 0-4.3633 0.35802-4.3633 0.79893 0 0.44124 1.9526 0.79889 4.3633 0.79889 2.4104 0 4.3684-0.35765 4.3684-0.79889 0-0.44091-1.958-0.79893-4.3684-0.79893zm3.5439 1.7462c-0.53381 0.0991-1.0626 0.17666-1.5108 0.2203 0.10909 0.96434 0.90268 3.0266 2.2585 3.0266 0.99478 0 1.7698-0.87792 1.8488-1.8334-1.166 0.55608-2.3554-0.0172-2.5965-1.4135zm-7.0878 0.0051c-0.23355 1.41-1.4302 1.9924-2.6016 1.434 0.079 0.95548 0.85351 1.8334 1.8488 1.8334 1.3666 0 2.1597-2.0984 2.2585-3.0523-0.51684-0.05776-1.0508-0.124-1.5057-0.2151zm1.9051 0.25606c-0.11584 0.90168-0.49069 2.0113-1.2291 3.0369 0.51147 1.12 1.7054 2.2061 2.8679 2.7194 1.1628-0.51331 2.3614-1.5994 2.873-2.7194-0.73865-1.0256-1.1131-2.1352-1.2291-3.0369-0.42802 0.0309-2.8543 0.031-3.2827 0z" fill="#e9f0f6"/>
</svg>
